# AST/ASF file generated using VICON BodyLanguage
# -----------------------------------------------
:version 1.10
:name VICON
:units
  mass 1.0
  length 0.45
  angle deg
:documentation
   .ast/.asf automatically generated from VICON data using
   VICON BodyBuilder and BodyLanguage model FoxedUp or BRILLIANT.MOD
:root
   order TX TY TZ RX RY RZ
   axis XYZ
   position 0 0 0  
   orientation 0 0 0 
:bonedata
  begin
     id 1 
     name lhipjoint
     direction 0.621036 -0.695554 0.361275 
     length 2.46325 
     axis 0 0 0  XYZ
  end
  begin
     id 2 
     name lfemur
     direction 0.34202 -0.939693 0  
     length 6.54784  
     axis 0 0 20  XYZ
    dof rx ry rz
    limits (-160.0 20.0)
           (-70.0 70.0)
           (-60.0 70.0)
  end
  begin
     id 3 
     name ltibia
     direction 0.34202 -0.939693 0   
     length 7.84737   
     axis 0 0 20   XYZ
    dof rx
    limits (-10.0 170.0)
  end
  begin
     id 4 
     name lfoot
     direction 0.0790693 -0.217241 0.97291   
     length 2.59747   
     axis -90 7.62852e-016 20   XYZ
    dof rx rz
    limits (-45.0 90.0)
           (-70.0 20.0)
  end
  begin
     id 5 
     name ltoes
     direction 1.53572e-011 -4.21898e-011 1   
     length 1.29919   
     axis -90 7.62852e-016 20   XYZ
    dof rx
    limits (-90.0 20.0)
  end
  begin
     id 6 
     name rhipjoint
     direction -0.602353 -0.708375 0.367935   
     length 2.41867  
     axis 0 0 0  XYZ 
  end
  begin
     id 7 
     name rfemur
     direction -0.34202 -0.939693 0   
     length 6.92065   
     axis 0 0 -20   XYZ
    dof rx ry rz
    limits (-160.0 20.0)
           (-70.0 70.0)
           (-70.0 60.0)
  end
  begin
     id 8 
     name rtibia
     direction -0.34202 -0.939693 0   
     length 7.88883   
     axis 0 0 -20   XYZ
    dof rx
    limits (-10.0 170.0)
 end
 begin
     id 9 
     name rfoot
     direction -0.0768692 -0.211196 0.974416   
     length 2.43714  
     axis -90 -7.62852e-016 -20   XYZ
    dof rx rz
    limits (-45.0 90.0)
           (-20.0 70.0)
  end
  begin
     id 10 
     name rtoes
     direction -1.53575e-011 -4.21933e-011 1   
     length 1.22113   
     axis -90 -7.62852e-016 -20   XYZ
    dof rx
    limits (-90.0 20.0)
  end
  begin
     id 11 
     name lowerback
     direction 0.0197937 0.98943 -0.143655   
     length 2.16931   
     axis 0 0 0   XYZ
    dof rx ry rz
    limits (-20.0 45.0)
           (-30.0 30.0)
           (-30.0 30.0)
  end
  begin
     id 12 
     name upperback
     direction -0.00183968 0.999975 0.00684288   
     length 2.17221   
     axis 0 0 0   XYZ
    dof rx ry rz
    limits (-20.0 45.0)
           (-30.0 30.0)
           (-30.0 30.0)
  end
  begin
     id 13 
     name thorax
     direction -0.00950244 0.997208 0.0740685   
     length 2.22549   
     axis 0 0 0   XYZ
    dof rx ry rz
    limits (-20.0 45.0)
           (-30.0 30.0)
           (-30.0 30.0)
  end
  begin
     id 14 
     name lowerneck
     direction 0.0218238 0.996215 0.0841425   
     length 1.77269   
     axis 0 0 0   XYZ
    dof rx ry rz
    limits (-20.0 45.0)
           (-30.0 30.0)
           (-30.0 30.0)
  end
  begin
     id 15 
     name upperneck
     direction -0.00430652 0.994214 -0.107332   
     length 1.76534   
     axis 0 0 0   XYZ
    dof rx ry rz
    limits (-20.0 45.0)
           (-30.0 30.0)
           (-30.0 30.0)
  end
  begin
     id 16
     name head
     direction -0.00328946 0.998959 -0.0454998  
     length 1.82634  
     axis 0 0 0   XYZ
    dof rx ry rz
    limits (-20.0 45.0)
           (-30.0 30.0)
           (-30.0 30.0)
  end
  begin
     id 17 
     name lclavicle
     direction 0.970962 0.239191 0.00450212  
     length 3.84872  
     axis 0 0 0   XYZ
    dof ry rz
    limits (-20.0 10.0)
           (0.0 20.0)
  end
  begin
     id 18 
     name lhumerus
     direction 1 -4.48966e-011 5.74696e-028   
     length 5.22771   
     axis 180 -30 -90   XYZ
    dof rx ry rz
    limits (-60.0 90.0)
           (-90.0 90.0)
           (-90.0 90.0)
  end
  begin
     id 19
     name lradius
     direction 1 -4.4896e-011 4.25109e-027   
     length 3.45251   
     axis 180 -30 -90   XYZ
    dof rx
    limits (-10.0 170.0)
  end
  begin
     id 20
     name lwrist
     direction 1 -4.48971e-011 1.15382e-027   
     length 1.72626   
     axis -5.52449e-016 90 90   XYZ
    dof ry
    limits (-180.0 0.0)
 end
  begin
     id 21 
     name lhand
     direction 1 -4.49034e-011 2.30765e-027   
     length 0.552119   
     axis -1.47248e-015 90 90   XYZ
    dof rx rz
    limits (-90.0 90.0)
           (-45.0 45.0)
  end
  begin
     id 22 
     name lfingers
     direction 1 -4.48951e-011 4.61529e-027   
     length 0.445133   
     axis -2.94495e-015 90 90   XYZ
    dof rx
    limits (0.0 90.0)
  end
  begin
     id 23
     name lthumb
     direction 0.707107 -6.34991e-011 0.707107   
     length 0.639124   
     axis -90 45 2.85299e-015   XYZ
    dof rx rz
    limits (-45.0 45.0)
           (-45.0 45.0)
  end
  begin
     id 24 
     name rclavicle
     direction -0.97424 0.222511 -0.0366699   
     length 3.73439  
     axis 0 0 0   XYZ 
    dof ry rz
    limits (-10.0 20.0)
           (-20.0 0.0)
  end
  begin
     id 25 
     name rhumerus
     direction -1 -4.48956e-011 -4.97258e-028  
     length 5.2398   
     axis 180 30 90   XYZ
    dof rx ry rz
    limits (-90.0 60.0)
           (-90.0 90.0)
           (-90.0 90.0)
  end
  begin
     id 26 
     name rradius
     direction -1 -4.4897e-011 -1.72611e-027   
     length 3.48042   
     axis 180 30 90   XYZ
    dof rx
    limits (-10.0 170.0)
  end
  begin
     id 27 
     name rwrist
     direction -1 -4.48976e-011 1.15382e-027   
     length 1.74021   
     axis -5.52449e-016 -90 -90   XYZ
    dof ry
    limits (-180.0 0.0)
  end
  begin
     id 28
     name rhand
     direction -1 -4.48963e-011 2.30765e-027   
     length 0.618713   
     axis -1.47248e-015 -90 -90   XYZ
    dof rx rz
    limits (-90.0 90.0)
           (-45.0 45.0)
  end
  begin
     id 29
     name rfingers
     direction -1 -4.4888e-011 4.61529e-027   
     length 0.498823   
     axis -2.94495e-015 -90 -90   XYZ
    dof rx
    limits (0.0 90.0)
  end
  begin
     id 30
     name rthumb
     direction -0.707107 -6.34968e-011 0.707107   
     length 0.716213   
     axis -90 -45 -2.85299e-015   XYZ
    dof rx rz
    limits (-45.0 45.0)
           (-45.0 45.0)
  end
:hierarchy
  begin
    root lhipjoint rhipjoint lowerback
    lhipjoint lfemur
    lfemur ltibia
    ltibia lfoot
    lfoot ltoes
    rhipjoint rfemur
    rfemur rtibia
    rtibia rfoot
    rfoot rtoes
    lowerback upperback
    upperback thorax
    thorax lowerneck lclavicle rclavicle
    lowerneck upperneck
    upperneck head
    lclavicle lhumerus
    lhumerus lradius
    lradius lwrist
    lwrist lhand lthumb
    lhand lfingers
    rclavicle rhumerus
    rhumerus rradius
    rradius rwrist
    rwrist rhand rthumb
    rhand rfingers
  end

#!OML:ASF G:\JayActor3\Patient Classification 1\Patient 1\Session 5\male.ASF
:FULLY-SPECIFIED
:DEGREES
32
root 50.1689 16.1611 -4.53708 107.528 -86.5842 -109.582
lowerback 3.32124 -0.473101 2.53629
upperback 3.3874 -0.645956 0.149225
thorax 1.59137 -0.299958 -1.25646
lowerneck -7.7148 -0.273065 1.83419
upperneck 9.18549 -0.798382 1.59552
head 4.42346 -0.263901 0.159391
rclavicle -1.98785e-016 -9.93923e-015
rhumerus -30.1337 -8.82888 -86.425
rradius 29.1872
rwrist 0.561538
rhand -19.0323 -9.42215
rfingers 7.12502
rthumb 7.27393 -39.2771
lclavicle -1.98785e-016 -9.93923e-015
lhumerus -29.695 -1.02767 87.4617
lradius 28.3601
lwrist 19.9257
lhand -19.9293 15.3738
lfingers 7.12502
lthumb 6.40807 45.2569
rfemur -17.3895 4.31599 20.3016
rtibia 46.5716
rfoot -18.7957 -8.72751
rtoes -6.36908
lfemur -3.39984 10.3179 -17.5816
ltibia 24.4903
lfoot -18.1715 1.58726
ltoes -5.95179
33
root 50.1696 16.158 -4.52869 108.872 -86.6134 -110.958
lowerback 3.33122 -0.479171 2.41872
upperback 3.3957 -0.656086 0.13
thorax 1.59461 -0.307149 -1.2101
lowerneck -7.72651 -0.262618 1.84826
upperneck 9.2518 -0.786989 1.58005
head 4.44984 -0.258028 0.152407
rclavicle 4.34841e-015 -9.93923e-015
rhumerus -30.1264 -8.79264 -86.4325
rradius 29.2051
rwrist 0.538471
rhand -19.0379 -9.3857
rfingers 7.12502
rthumb 7.26859 -39.2409
lclavicle 4.34841e-015 -9.93923e-015
lhumerus -29.6945 -1.08739 87.4537
lradius 28.3541
lwrist 19.9417
lhand -19.9175 15.387
lfingers 7.12502
lthumb 6.41948 45.2698
rfemur -17.5353 4.30354 20.181
rtibia 46.8871
rfoot -18.7567 -8.56895
rtoes -6.8454
lfemur -3.3595 10.4196 -17.6529
ltibia 24.4928
lfoot -18.2007 1.52599
ltoes -5.91018
34
root 50.1691 16.1551 -4.52139 110.048 -86.6453 -112.172
lowerback 3.33366 -0.485163 2.30707
upperback 3.40276 -0.66608 0.107405
thorax 1.60076 -0.314059 -1.17056
lowerneck -7.73019 -0.257197 1.85913
upperneck 9.32126 -0.782069 1.56591
head 4.47576 -0.255447 0.146048
rclavicle -9.7156e-015 -5.56597e-015
rhumerus -30.135 -8.77083 -86.4396
rradius 29.2097
rwrist 0.524434
rhand -19.0428 -9.34972
rfingers 7.12502
rthumb 7.26383 -39.205
lclavicle -9.7156e-015 -5.56597e-015
lhumerus -29.7036 -1.15279 87.4391
lradius 28.3407
lwrist 19.948
lhand -19.9128 15.3991
lfingers 7.12502
lthumb 6.42397 45.2816
rfemur -17.6435 4.30078 20.0731
rtibia 47.1788
rfoot -18.7644 -8.41179
rtoes -7.21123
lfemur -3.30781 10.5085 -17.7197
ltibia 24.4912
lfoot -18.228 1.46754
ltoes -5.89136
35
root 50.1677 16.1522 -4.51501 111.092 -86.6748 -113.258
lowerback 3.32788 -0.490957 2.20836
upperback 3.40767 -0.675641 0.0842297
thorax 1.60924 -0.320441 -1.13895
lowerneck -7.71442 -0.256871 1.85851
upperneck 9.38464 -0.78248 1.55612
head 4.49557 -0.255898 0.142901
rclavicle 1.22004e-014 -3.97569e-015
rhumerus -30.1594 -8.76245 -86.4415
rradius 29.1992
rwrist 0.521642
rhand -19.0453 -9.33253
rfingers 7.12502
rthumb 7.26139 -39.1879
lclavicle 1.22004e-014 -3.97569e-015
lhumerus -29.7216 -1.20994 87.4188
lradius 28.3142
lwrist 19.9394
lhand -19.9109 15.4001
lfingers 7.12502
lthumb 6.4258 45.2826
rfemur -17.7139 4.31005 19.9816
rtibia 47.4434
rfoot -18.7995 -8.26546
rtoes -7.4437
lfemur -3.24623 10.5826 -17.7787
ltibia 24.4871
lfoot -18.2547 1.41608
ltoes -5.87102
36
root 50.1652 16.1494 -4.50945 112.044 -86.6968 -114.255
lowerback 3.3134 -0.492925 2.13173
upperback 3.41364 -0.67986 0.0584762
thorax 1.62367 -0.3236 -1.12255
lowerneck -7.70122 -0.262049 1.85382
upperneck 9.44915 -0.790072 1.54805
head 4.51635 -0.259925 0.140602
rclavicle 4.29872e-015 -7.95139e-015
rhumerus -30.1909 -8.77838 -86.4404
rradius 29.1725
rwrist 0.533114
rhand -19.0458 -9.33231
rfingers 7.12502
rthumb 7.26098 -39.1877
lclavicle 4.29872e-015 -7.95139e-015
lhumerus -29.7311 -1.26104 87.3902
lradius 28.2639
lwrist 19.9118
lhand -19.9128 15.3968
lfingers 7.12502
lthumb 6.42403 45.2794
rfemur -17.7476 4.33842 19.9093
rtibia 47.6775
rfoot -18.8504 -8.12671
rtoes -7.49269
lfemur -3.17848 10.6421 -17.8266
ltibia 24.4833
lfoot -18.2831 1.37599
ltoes -5.84913
37
root 50.1619 16.1468 -4.50469 112.94 -86.7109 -115.197
lowerback 3.29263 -0.49201 2.07421
upperback 3.41915 -0.679953 0.0321395
thorax 1.64114 -0.324263 -1.11758
lowerneck -7.6922 -0.269931 1.84108
upperneck 9.51546 -0.800863 1.54363
head 4.5387 -0.265595 0.140769
rclavicle -4.57205e-015 -1.59028e-015
rhumerus -30.2272 -8.81669 -86.434
rradius 29.1245
rwrist 0.562818
rhand -19.0436 -9.3353
rfingers 7.12502
rthumb 7.26309 -39.1906
lclavicle -4.57205e-015 -1.59028e-015
lhumerus -29.7346 -1.2984 87.3533
lradius 28.1924
lwrist 19.8692
lhand -19.9174 15.3842
lfingers 7.12502
lthumb 6.41953 45.2669
rfemur -17.7455 4.38666 19.8541
rtibia 47.8767
rfoot -18.8915 -7.99318
rtoes -7.33909
lfemur -3.10764 10.6912 -17.8641
ltibia 24.4827
lfoot -18.3158 1.34604
ltoes -5.82099
38
root 50.1578 16.1444 -4.50064 113.734 -86.7159 -116.033
lowerback 3.26305 -0.489432 2.03768
upperback 3.42509 -0.677616 0.00701671
thorax 1.66391 -0.323232 -1.12326
lowerneck -7.69848 -0.2791 1.82289
upperneck 9.58415 -0.812982 1.53854
head 4.56509 -0.272006 0.141576
rclavicle 1.56543e-014 1.59028e-015
rhumerus -30.2606 -8.86985 -86.4236
rradius 29.0559
rwrist 0.603661
rhand -19.0412 -9.34228
rfingers 7.12502
rthumb 7.26539 -39.1975
lclavicle 1.56543e-014 1.59028e-015
lhumerus -29.7221 -1.31079 87.3066
lradius 28.0934
lwrist 19.8063
lhand -19.9243 15.3754
lfingers 7.12502
lthumb 6.41291 45.2584
rfemur -17.7146 4.44886 19.8184
rtibia 48.0361
rfoot -18.897 -7.86845
rtoes -7.00798
lfemur -3.04131 10.7297 -17.8898
ltibia 24.4868
lfoot -18.3514 1.32552
ltoes -5.78855
